# xmcd CD database file
#
# Track frame offsets:
#	150
#	18363
#	39203
#
# Disc length: 805 seconds
#
# Revision: 0
# Processed by: cddbd v1.5PL3 Copyright (c) Steve Scherf et al.
# Submitted via: CDex 1.51
#
DISCID=15032303
DTITLE=鉄と鉛 - possibility
DYEAR=2003
DGENRE=J ポップ
TTITLE0=Pay now !
TTITLE1=スリープ
TTITLE2=好きのピーク
EXTD=YEAR: 2003
EXTT0=
EXTT1=
EXTT2=
PLAYORDER=
